<svg xmlns="http://www.w3.org/2000/svg" viewBox="0 0 64 80" x="0px" y="0px"><path d="M32,16A18,18,0,1,0,50,34,18.021,18.021,0,0,0,32,16Zm0,34A16,16,0,1,1,48,34,16.019,16.019,0,0,1,32,50Z"/><path d="M32,21A13,13,0,1,0,45,34,13.015,13.015,0,0,0,32,21Zm0,24A11,11,0,1,1,43,34,11.013,11.013,0,0,1,32,45Z"/><path d="M62,16.222C62,10.108,58.505,3,54,3s-8,7.108-8,13.222c0,4.709,2.2,7.784,5.978,8.571l-.92,33.183A2.939,2.939,0,0,0,54,61H54a2.939,2.939,0,0,0,2.938-3.023l-.92-33.184C59.8,24.006,62,20.931,62,16.222ZM54.027,25l.916,33.033A.939.939,0,0,1,54,59H54a.939.939,0,0,1-.939-.968L53.973,25ZM54,23c-3.869,0-6-2.407-6-6.778C48,10.769,51.084,5,54,5s6,5.769,6,11.222C60,20.593,57.869,23,54,23Z"/><path d="M15.969,16.155A.989.989,0,0,0,16,16V4a1,1,0,0,0-2,0V14H12V4a1,1,0,0,0-2,0V14H8V4A1,1,0,0,0,6,4V14H4V4A1,1,0,0,0,2,4V16a.989.989,0,0,0,.031.155c.253,4.582,2.036,7.607,4.949,8.535L6.058,57.976A2.939,2.939,0,0,0,9,61H9a2.939,2.939,0,0,0,2.938-3.023L11.02,24.69C13.933,23.762,15.716,20.737,15.969,16.155ZM9.027,25l.916,33.033A.939.939,0,0,1,9,59H9a.939.939,0,0,1-.939-.968L8.973,25ZM9,23c-3.966,0-4.822-4.32-4.972-7h9.944C13.822,18.68,12.966,23,9,23Z"/><text x="0" y="79" fill="#000000" font-size="5px" font-weight="bold" font-family="'Helvetica Neue', Helvetica, Arial-Unicode, Arial, Sans-serif">Created by Mavadee</text><text x="0" y="84" fill="#000000" font-size="5px" font-weight="bold" font-family="'Helvetica Neue', Helvetica, Arial-Unicode, Arial, Sans-serif">from the Noun Project</text></svg>