<?xml version="1.0" standalone="no"?>
<!DOCTYPE svg PUBLIC "-//W3C//DTD SVG 20010904//EN"
 "http://www.w3.org/TR/2001/REC-SVG-20010904/DTD/svg10.dtd">
<svg version="1.0" xmlns="http://www.w3.org/2000/svg"
 width="600.000000pt" height="558.000000pt" viewBox="0 0 600.000000 558.000000"
 preserveAspectRatio="xMidYMid meet">
<g transform="translate(0.000000,558.000000) scale(0.100000,-0.100000)"
fill="#000000" stroke="none">
<path d="M4736 5141 c-3 -5 -20 -11 -38 -14 -97 -16 -145 -42 -231 -124 -30
-29 -58 -49 -62 -45 -5 4 -5 2 -2 -4 8 -14 -27 -56 -38 -46 -5 4 -5 2 -2 -4 3
-6 -5 -27 -18 -46 -13 -20 -21 -38 -18 -42 4 -3 1 -6 -6 -6 -7 0 -9 -4 -6 -10
3 -5 2 -10 -3 -10 -6 0 -15 -13 -21 -30 -5 -16 -13 -30 -16 -30 -3 0 -3 5 1
12 4 7 3 8 -5 4 -6 -4 -9 -11 -6 -16 3 -5 1 -17 -4 -27 -20 -39 -50 -120 -56
-156 -5 -23 -11 -34 -15 -27 -4 7 -7 -1 -7 -17 0 -15 -7 -59 -16 -98 -23 -104
-42 -359 -25 -332 4 7 8 -4 8 -24 0 -51 35 -167 70 -231 6 -10 10 -22 10 -28
0 -6 9 -20 20 -32 11 -12 19 -29 18 -37 -2 -9 2 -16 9 -16 6 0 31 -20 55 -45
86 -89 182 -157 234 -164 7 -1 18 -7 26 -14 8 -6 18 -8 23 -4 4 4 4 -81 1
-188 -4 -107 -8 -247 -9 -310 -1 -63 -6 -121 -11 -129 -5 -8 -5 -12 0 -8 5 3
8 -32 7 -81 -7 -245 -24 -835 -28 -967 -14 -453 -20 -718 -17 -783 1 -40 -1
-71 -5 -69 -9 6 -9 -399 0 -428 10 -33 55 -116 64 -118 4 -1 7 -6 5 -10 -1 -5
1 -6 6 -3 5 3 20 -5 33 -18 41 -38 67 -47 143 -53 53 -4 86 -1 122 11 52 17
118 68 106 82 -4 4 1 4 11 1 12 -5 17 -1 17 12 0 10 7 24 15 31 8 6 22 37 31
68 14 49 15 85 9 252 -10 285 -15 442 -20 650 -3 102 -7 219 -9 260 -4 69 -10
237 -21 694 -3 99 -7 181 -9 183 -2 2 0 19 4 38 4 19 5 33 0 30 -4 -2 -7 35
-8 83 0 48 -3 121 -7 162 -3 42 -1 90 4 109 6 20 7 40 1 50 -5 10 -12 121 -16
247 l-7 230 34 27 c24 19 36 23 41 14 5 -8 8 -6 8 6 0 9 4 17 10 17 15 0 145
132 162 165 8 17 27 50 41 75 30 54 73 210 82 300 3 36 1 108 -5 160 -7 52
-13 109 -15 125 -2 17 -13 61 -25 98 -12 38 -19 75 -16 83 3 8 2 13 -3 10 -12
-8 -23 22 -14 37 3 7 3 9 -2 5 -12 -11 -35 39 -28 59 4 10 2 14 -4 10 -7 -5
-16 8 -23 30 -7 21 -18 44 -24 52 -6 8 -10 16 -8 18 1 1 2 9 2 16 0 9 -3 9 -9
-1 -6 -10 -10 -6 -16 15 -5 15 -7 32 -6 36 1 5 -3 6 -8 3 -14 -9 -64 80 -55
96 5 10 4 10 -5 2 -8 -8 -23 0 -55 30 -23 23 -55 50 -71 61 -16 11 -33 25 -39
30 -19 18 -136 49 -187 49 -26 0 -46 3 -43 8 3 4 3 8 0 8 -3 0 -7 -4 -10 -9z
m179 -60 c239 -106 431 -461 461 -852 16 -205 -49 -407 -177 -552 -40 -46
-146 -127 -181 -140 -22 -8 -22 57 1 -632 11 -313 22 -667 26 -785 3 -118 12
-408 20 -645 8 -236 17 -541 21 -677 l7 -248 -32 -65 c-71 -144 -238 -194
-368 -112 -52 33 -68 53 -99 122 l-28 60 18 590 c22 767 34 1177 46 1625 5
201 13 447 16 548 7 178 6 182 -13 182 -12 0 -58 19 -104 41 -176 89 -306 267
-348 477 -50 251 59 670 230 884 48 61 131 138 173 160 96 52 239 60 331 19z"/>
<path d="M4665 4979 c-136 -56 -257 -207 -325 -409 -12 -34 -19 -65 -16 -67 3
-3 8 7 12 23 4 15 13 39 20 53 8 14 14 34 14 44 0 10 5 15 10 12 6 -4 10 -3 9
2 -5 21 42 115 74 151 10 10 17 23 17 28 0 14 96 102 125 116 14 6 25 14 25
17 0 4 10 7 22 8 11 1 24 6 27 10 3 4 11 9 16 9 6 1 21 5 35 9 18 5 21 4 10
-4 -22 -15 -6 -23 24 -11 15 5 44 10 64 11 30 0 33 2 17 9 -36 15 -128 10
-180 -11z"/>
<path d="M4694 4956 c-41 -22 -116 -91 -145 -134 -80 -119 -153 -316 -165
-447 -3 -27 -9 -54 -15 -59 -5 -6 -9 -17 -9 -25 1 -13 3 -13 14 2 7 9 17 45
20 80 9 77 50 224 84 297 41 90 113 189 169 235 29 24 58 45 65 48 7 2 11 6 8
9 -3 3 -14 0 -26 -6z"/>
<path d="M4310 4456 c0 -31 6 -34 13 -6 3 11 1 23 -4 26 -5 3 -9 -6 -9 -20z"/>
<path d="M5172 4450 c0 -19 2 -27 5 -17 2 9 2 25 0 35 -3 9 -5 1 -5 -18z"/>
<path d="M4305 4410 c-11 -18 -17 -194 -8 -219 7 -17 9 5 8 75 -1 54 2 111 6
127 8 28 5 35 -6 17z"/>
<path d="M5182 4380 c0 -14 2 -19 5 -12 2 6 2 18 0 25 -3 6 -5 1 -5 -13z"/>
<path d="M5251 4294 c0 -11 3 -14 6 -6 3 7 2 16 -1 19 -3 4 -6 -2 -5 -13z"/>
<path d="M4377 4273 c-14 -13 -2 -253 13 -253 3 0 2 33 -2 73 -5 39 -8 98 -6
130 2 31 3 57 2 57 0 0 -4 -3 -7 -7z"/>
<path d="M5253 4205 c0 -38 2 -53 4 -32 2 20 2 52 0 70 -2 17 -4 1 -4 -38z"/>
<path d="M5171 4164 c-7 -30 -11 -57 -8 -60 2 -2 9 21 16 52 7 30 11 57 8 60
-2 2 -9 -21 -16 -52z"/>
<path d="M4301 4138 c-1 -16 4 -28 9 -28 12 0 12 8 0 35 -8 18 -9 17 -9 -7z"/>
<path d="M5242 4090 c0 -14 2 -19 5 -12 2 6 2 18 0 25 -3 6 -5 1 -5 -13z"/>
<path d="M4314 4075 c29 -121 120 -281 152 -268 12 4 15 2 12 -8 -5 -15 44
-69 64 -69 8 0 7 4 -3 13 -8 6 -28 29 -43 51 -22 29 -31 35 -38 25 -7 -10 -8
-8 -5 8 3 14 1 20 -8 17 -18 -7 -71 84 -101 174 -27 80 -42 109 -30 57z"/>
<path d="M5145 4081 c-3 -5 -1 -12 5 -16 5 -3 10 1 10 9 0 18 -6 21 -15 7z"/>
<path d="M5120 4005 c0 -8 2 -15 4 -15 2 0 6 7 10 15 3 8 1 15 -4 15 -6 0 -10
-7 -10 -15z"/>
<path d="M4401 3985 c0 -11 6 -31 14 -45 18 -32 18 -25 0 25 -8 22 -14 31 -14
20z"/>
<path d="M5105 3961 c-3 -12 -10 -21 -15 -21 -5 0 -11 -8 -14 -18 -4 -10 -20
-34 -36 -52 -16 -18 -27 -36 -24 -39 4 -3 9 0 11 7 3 7 15 23 27 35 28 27 70
96 63 103 -3 3 -8 -4 -12 -15z"/>
<path d="M5171 3892 c-12 -23 -51 -72 -88 -111 -77 -80 -150 -119 -239 -128
-30 -3 -51 -9 -47 -14 28 -26 221 47 270 102 14 16 30 26 36 22 6 -4 8 0 4 10
-4 10 -1 17 6 17 14 0 93 128 84 136 -3 3 -15 -12 -26 -34z"/>
<path d="M4432 3885 c6 -14 15 -25 19 -25 4 0 2 11 -4 25 -7 14 -15 25 -19 25
-4 0 -2 -11 4 -25z"/>
<path d="M4980 3812 c0 -13 -96 -73 -136 -85 -19 -6 -34 -14 -34 -18 0 -18
113 35 152 71 12 11 25 20 30 20 4 0 8 5 8 10 0 6 -4 10 -10 10 -5 0 -10 -4
-10 -8z"/>
<path d="M4648 3703 c7 -3 16 -2 19 1 4 3 -2 6 -13 5 -11 0 -14 -3 -6 -6z"/>
<path d="M4716 3701 c-4 -5 12 -7 36 -4 57 8 61 13 10 13 -22 0 -43 -4 -46 -9z"/>
<path d="M4646 3666 c11 -8 33 -18 47 -21 15 -4 27 -12 27 -19 0 -8 2 -8 8 0
4 7 18 14 32 17 20 3 18 5 -10 6 -19 1 -53 8 -75 16 -50 18 -54 18 -29 1z"/>
<path d="M4958 3633 c7 -3 16 -2 19 1 4 3 -2 6 -13 5 -11 0 -14 -3 -6 -6z"/>
<path d="M4910 3620 c-13 -8 -13 -10 2 -10 9 0 20 5 23 10 8 13 -5 13 -25 0z"/>
<path d="M4816 3233 c-7 -242 -14 -498 -41 -1563 -9 -327 -20 -705 -24 -840
-8 -204 -7 -249 5 -272 29 -56 89 -64 135 -18 l30 30 -6 132 c-3 73 -12 365
-20 648 -9 283 -20 655 -25 825 -5 171 -14 461 -20 645 -11 402 -21 644 -24
648 -2 1 -6 -105 -10 -235z m22 -800 c1 -24 0 -25 -9 -10 -5 9 -7 22 -4 27 9
15 10 13 13 -17z m-2 -116 c-3 -40 -2 -67 2 -60 4 6 7 -27 7 -73 0 -68 -3 -83
-14 -79 -11 4 -11 3 -2 -9 17 -20 18 -41 26 -371 3 -154 10 -387 15 -518 5
-131 6 -245 3 -253 -3 -8 0 -14 7 -14 7 0 10 -6 7 -13 -2 -6 -7 -23 -11 -37
-6 -19 -5 -21 3 -10 9 13 11 13 11 -2 0 -9 -4 -20 -10 -23 -5 -3 -10 -12 -10
-18 0 -9 2 -9 8 -1 4 7 8 -52 9 -130 3 -139 2 -141 -22 -158 -21 -16 -25 -16
-39 -2 -12 11 -16 12 -16 2 0 -8 -8 -5 -20 8 -12 11 -21 29 -21 40 0 10 2 84
5 164 6 169 14 418 21 685 3 105 8 269 11 365 5 163 11 398 13 533 1 38 5 56
11 52 7 -4 9 -34 6 -78z"/>
<path d="M550 5105 c-11 -20 -13 -152 -13 -693 0 -579 2 -672 16 -704 8 -20
13 -39 9 -42 -3 -3 0 -6 7 -6 9 0 12 -9 9 -25 -3 -13 -2 -22 2 -20 4 3 20 -19
34 -49 30 -62 32 -108 16 -421 -5 -104 -12 -291 -15 -415 -3 -124 -9 -346 -15
-495 -9 -250 -16 -454 -24 -730 -2 -60 -7 -119 -11 -129 -6 -13 -5 -17 2 -13
8 5 10 -5 7 -30 -2 -21 -6 -85 -8 -143 -3 -58 -8 -148 -11 -200 -8 -148 -8
-422 0 -455 19 -74 97 -186 125 -177 7 3 10 0 6 -6 -10 -17 116 -45 176 -39
67 7 76 9 116 30 47 26 88 72 119 136 27 55 27 60 26 226 -1 94 -5 179 -9 189
-6 15 -4 17 6 11 9 -6 11 -4 5 5 -5 8 -10 106 -12 219 -1 114 -3 206 -4 206
-1 0 -3 69 -4 154 -2 84 -6 199 -9 255 -8 156 -21 674 -20 838 0 81 -2 145 -5
143 -4 -2 -7 67 -7 153 -1 87 -5 257 -9 378 -5 195 -4 222 9 227 9 4 16 1 16
-6 0 -7 7 -3 15 7 8 11 18 17 21 13 3 -3 15 3 27 14 11 10 28 19 37 19 9 0 27
11 40 25 13 14 30 23 38 20 7 -2 11 -1 7 4 -3 5 8 23 25 39 16 17 30 36 30 43
0 7 3 10 6 6 9 -9 49 48 83 118 44 91 51 148 44 345 -3 96 -6 189 -7 207 -1
17 -5 29 -9 26 -4 -2 -7 10 -6 29 3 48 -21 319 -36 411 -3 15 -1 26 4 23 4 -3
4 16 -1 42 -5 26 -11 72 -13 102 -10 108 -16 130 -41 146 -30 20 -69 12 -85
-17 -7 -14 -12 -132 -15 -348 -6 -485 -10 -596 -19 -611 -5 -8 -4 -11 3 -7 6
5 8 0 5 -13 -3 -11 -8 -20 -12 -20 -10 0 -26 14 -27 25 -12 85 -29 343 -29
443 0 28 -3 52 -6 52 -3 0 -6 26 -5 58 0 31 -3 100 -7 152 -4 52 -10 136 -13
186 -5 85 -7 92 -30 103 -34 15 -48 14 -73 -6 -23 -20 -29 -70 -35 -338 -2
-72 -6 -141 -11 -154 -5 -18 -4 -22 5 -16 8 5 11 4 7 -3 -4 -5 -9 -57 -11
-114 -15 -345 -18 -379 -33 -374 -8 3 -11 1 -8 -4 3 -6 2 -10 -4 -10 -11 0
-18 23 -19 65 -1 17 -6 129 -12 250 -9 192 -14 308 -25 585 -4 97 -4 97 -21
114 -20 20 -68 21 -84 1 -7 -8 -15 -13 -19 -11 -3 2 -6 -24 -7 -57 -1 -126
-27 -563 -34 -583 -5 -11 -4 -27 0 -34 5 -8 7 -17 5 -20 -4 -7 -15 -151 -16
-220 -2 -79 -28 -120 -45 -68 -4 12 -8 190 -9 394 -2 205 -5 376 -7 381 -2 4
-4 54 -3 110 0 57 -2 98 -4 92 -2 -6 -10 -1 -18 10 -20 29 -56 27 -73 -4z m64
-29 c3 -11 7 -235 10 -496 6 -467 6 -475 27 -492 12 -10 25 -18 29 -18 4 0 17
8 29 18 24 19 24 23 56 607 22 397 22 403 47 411 43 13 44 1 63 -501 10 -264
21 -490 26 -502 18 -49 85 -36 93 20 7 42 24 435 31 702 4 116 8 224 11 242 5
34 26 48 53 34 15 -8 19 -40 29 -253 7 -134 19 -355 28 -493 14 -229 17 -251
36 -267 25 -22 31 -22 58 0 21 17 21 21 26 442 6 577 8 593 59 574 21 -8 22
-18 40 -229 9 -104 29 -336 45 -515 30 -332 30 -378 0 -490 -30 -111 -107
-216 -212 -290 -39 -27 -96 -58 -126 -67 l-54 -17 6 -181 c4 -99 13 -432 21
-740 32 -1205 45 -1677 51 -1836 3 -107 2 -181 -5 -207 -32 -117 -136 -196
-255 -194 -111 1 -192 55 -238 156 -26 58 -27 124 -8 596 6 140 17 469 25 730
31 986 45 1399 51 1540 l6 146 -48 99 -49 100 -5 688 c-3 379 -2 695 3 702 10
19 36 8 41 -19z"/>
<path d="M841 3425 c0 -27 -10 -322 -21 -655 -11 -333 -24 -753 -30 -935 -6
-181 -17 -517 -25 -745 -20 -551 -20 -526 10 -555 33 -34 87 -34 120 0 30 29
30 49 15 530 -5 171 -17 589 -25 930 -32 1332 -39 1570 -44 1430z m7 -1010
c-1 -41 -6 -75 -11 -75 -6 0 -7 16 -3 38 3 20 6 54 6 75 0 20 2 37 5 37 3 0 4
-34 3 -75z m7 -325 c3 -154 1 -239 -6 -252 -8 -15 -8 -19 0 -14 12 8 12 5 16
-169 2 -114 15 -600 21 -780 9 -305 9 -302 -9 -319 -9 -10 -17 -14 -17 -10 0
5 -5 3 -12 -4 -7 -7 -17 -12 -23 -12 -5 0 -3 5 5 11 12 9 11 10 -7 6 -15 -3
-23 0 -23 8 0 7 -5 15 -12 17 -12 4 -13 22 -3 263 2 72 6 189 9 260 2 72 9
301 17 510 7 209 13 396 13 415 1 19 6 38 11 43 6 4 6 10 -2 15 -8 5 -10 21
-6 46 4 25 9 33 14 24 6 -9 9 -9 9 -1 0 6 -4 15 -10 18 -5 3 -8 25 -6 48 2 23
4 60 5 81 1 22 3 37 6 34 3 -2 7 -110 10 -238z"/>
<path d="M2837 4354 c-3 -3 -41 -7 -84 -9 -43 -1 -85 -5 -93 -8 -8 -3 -35 -8
-60 -10 -25 -2 -56 -8 -70 -12 -14 -4 -34 -7 -45 -8 -11 0 -23 -6 -27 -11 -5
-7 -8 -5 -8 4 0 9 -3 11 -8 4 -11 -16 -100 -46 -113 -38 -8 4 -9 3 -5 -4 4 -8
0 -12 -11 -12 -10 0 -35 -9 -56 -20 -21 -11 -43 -17 -49 -14 -6 4 -8 3 -5 -3
8 -13 -68 -47 -84 -38 -7 5 -10 4 -6 -2 9 -14 -61 -56 -76 -47 -7 4 -9 4 -5
-1 7 -7 -26 -39 -47 -46 -5 -1 -16 -8 -23 -15 -28 -29 -106 -79 -116 -76 -6 2
-8 1 -4 -3 3 -4 -19 -30 -50 -58 -31 -28 -65 -62 -74 -76 -10 -14 -18 -21 -18
-16 0 6 -8 -2 -18 -18 -10 -15 -22 -24 -25 -20 -4 3 -7 -1 -7 -10 0 -9 -4 -17
-9 -17 -4 0 -21 -20 -36 -45 -16 -24 -32 -42 -36 -40 -4 3 -10 -2 -13 -11 -4
-10 -2 -13 7 -8 6 4 -3 -9 -20 -27 -18 -19 -33 -40 -33 -46 0 -6 -7 -16 -15
-23 -8 -7 -15 -22 -15 -33 0 -11 -3 -18 -6 -14 -9 9 -45 -64 -37 -76 3 -6 1
-7 -4 -4 -6 4 -14 -5 -18 -20 -3 -16 -10 -30 -15 -33 -5 -3 -22 -45 -38 -94
-16 -49 -32 -82 -35 -75 -6 14 -10 -10 -8 -41 1 -21 -34 -151 -40 -146 -2 2
-4 -8 -5 -22 0 -15 -4 -70 -7 -122 -10 -135 -7 -410 4 -410 4 0 9 -9 12 -20 3
-11 1 -18 -4 -14 -5 3 -9 0 -9 -5 0 -6 5 -11 11 -11 6 0 9 -9 6 -20 -3 -11 -1
-20 3 -20 4 0 13 -24 18 -52 6 -29 22 -83 35 -120 14 -38 23 -68 21 -68 -2 0
19 -45 47 -101 27 -56 48 -107 45 -115 -3 -8 0 -11 10 -7 7 3 14 1 14 -4 0 -6
27 -50 60 -99 33 -49 60 -95 60 -103 0 -8 3 -11 7 -8 7 8 39 -34 35 -46 -1 -5
3 -5 9 -1 9 5 10 2 6 -10 -4 -9 -3 -15 1 -12 5 3 49 -34 98 -82 49 -48 115
-104 147 -125 32 -22 61 -45 63 -51 3 -7 10 -13 17 -13 7 0 33 -14 58 -31 46
-32 193 -112 206 -113 5 0 24 -7 43 -16 43 -18 229 -72 273 -79 160 -27 476
-36 537 -16 19 7 54 13 77 15 23 1 45 6 49 10 4 4 16 7 26 7 10 0 43 9 73 19
29 10 56 17 59 14 3 -3 24 4 48 15 104 50 161 71 172 65 6 -3 8 -3 4 2 -7 8
45 44 107 75 26 13 151 104 165 120 3 3 23 19 45 36 38 28 138 124 129 124 -2
0 11 15 29 33 38 37 107 122 107 132 0 3 5 11 10 18 6 7 18 21 26 32 9 11 12
14 8 6 -4 -9 -3 -12 4 -7 6 4 9 13 6 20 -3 7 2 19 10 26 9 7 13 16 10 21 -3 5
0 9 5 9 6 0 11 7 11 16 0 8 4 13 9 10 5 -3 12 6 15 20 4 14 17 42 30 62 25 40
41 82 37 96 -1 5 3 12 9 16 6 3 12 15 14 26 2 10 14 43 25 72 18 45 38 126 58
232 2 13 10 28 16 32 9 6 8 11 -3 18 -9 6 -11 13 -5 18 13 9 18 361 5 376 -5
7 -7 27 -5 45 2 18 0 40 -4 49 -5 9 -22 70 -37 135 -15 64 -31 117 -35 117 -4
0 -7 8 -7 18 2 18 -13 52 -74 177 -58 117 -74 144 -99 171 -12 13 -19 24 -16
24 9 0 -86 123 -125 163 -16 16 -25 33 -22 39 4 6 3 8 -3 5 -13 -8 -135 112
-126 126 3 5 1 7 -4 4 -6 -4 -22 2 -35 13 -14 11 -28 17 -32 15 -3 -3 -4 -2
-1 2 3 3 -13 18 -35 33 -22 15 -37 30 -33 35 5 4 2 5 -4 1 -7 -4 -23 0 -35 8
-12 9 -19 16 -14 16 21 0 -255 139 -289 146 -5 1 -12 3 -15 4 -3 1 -12 3 -20
6 -8 2 -47 15 -86 28 -40 13 -87 27 -105 30 -19 3 -59 10 -89 17 -30 6 -78 12
-107 13 -28 1 -55 4 -58 8 -8 7 -102 1 -117 -8 -7 -4 -8 -3 -4 4 7 12 -6 17
-17 6z m283 -49 c406 -66 760 -275 1012 -600 214 -274 321 -567 335 -910 7
-179 -6 -308 -47 -465 -155 -588 -632 -1041 -1229 -1167 -110 -23 -149 -27
-306 -27 -126 0 -208 6 -275 18 -500 90 -928 412 -1158 871 -358 714 -127
1571 546 2029 176 119 397 210 601 246 136 24 388 26 521 5z"/>
<path d="M2728 4213 c7 -3 16 -2 19 1 4 3 -2 6 -13 5 -11 0 -14 -3 -6 -6z"/>
<path d="M2823 4213 c9 -2 23 -2 30 0 6 3 -1 5 -18 5 -16 0 -22 -2 -12 -5z"/>
<path d="M2620 4200 c-13 -8 -12 -10 3 -10 9 0 17 5 17 10 0 12 -1 12 -20 0z"/>
<path d="M2655 4200 c-3 -5 -1 -10 4 -10 6 0 11 5 11 10 0 6 -2 10 -4 10 -3 0
-8 -4 -11 -10z"/>
<path d="M2540 4180 c-8 -5 -12 -12 -9 -15 4 -3 12 1 19 10 14 17 11 19 -10 5z"/>
<path d="M2690 4155 c-58 -7 -134 -20 -169 -29 -35 -9 -74 -14 -85 -11 -12 3
-15 2 -7 -1 8 -4 -31 -24 -90 -48 -57 -23 -125 -54 -150 -69 -25 -15 -49 -24
-54 -19 -4 4 -5 1 -1 -5 4 -7 3 -13 -3 -13 -5 0 -39 -20 -75 -44 -54 -36 -67
-41 -77 -30 -9 11 -8 14 4 14 15 0 32 28 22 38 -3 3 -5 0 -5 -6 0 -7 -5 -12
-12 -12 -12 0 -18 -5 -77 -60 -19 -17 -45 -38 -57 -47 -13 -8 -21 -19 -18 -24
3 -5 -2 -9 -11 -9 -9 0 -19 -9 -22 -20 -3 -11 -11 -20 -17 -20 -7 0 -23 -15
-36 -32 -13 -18 -29 -40 -37 -48 -33 -36 -83 -110 -83 -122 0 -8 -9 -20 -20
-28 -11 -8 -20 -20 -20 -27 0 -7 -4 -13 -10 -13 -5 0 -10 -9 -10 -20 0 -11 -5
-20 -11 -20 -5 0 -8 -4 -4 -9 3 -5 1 -12 -5 -16 -12 -8 -13 -42 -1 -49 5 -4 7
2 4 13 -3 12 2 20 16 24 14 3 19 11 16 26 -2 12 1 21 7 21 5 0 8 7 4 15 -3 8
3 20 12 27 9 7 24 27 32 43 25 49 48 71 62 57 9 -9 6 -18 -15 -40 -15 -15 -27
-33 -27 -40 0 -7 -5 -12 -11 -12 -5 0 -8 -4 -5 -9 3 -4 -3 -16 -14 -26 -11
-10 -20 -22 -20 -26 0 -16 -53 -124 -64 -131 -6 -4 -8 -8 -4 -8 8 0 -15 -69
-34 -104 -6 -11 -17 -49 -24 -85 -8 -36 -17 -73 -20 -81 -4 -8 -8 -24 -9 -35
-1 -11 -6 -54 -11 -95 -4 -41 -7 -97 -6 -123 1 -34 -1 -46 -10 -41 -7 5 -8 3
-3 -7 5 -7 10 -27 11 -44 9 -100 17 -150 35 -238 11 -53 17 -102 13 -109 -4
-6 -3 -8 3 -5 7 4 13 -7 17 -28 4 -19 13 -47 21 -62 8 -15 15 -33 15 -38 0
-21 150 -299 169 -315 4 -3 20 -24 37 -47 17 -24 34 -40 37 -36 4 3 7 1 7 -5
0 -6 25 -36 56 -66 35 -35 53 -60 48 -68 -4 -7 -4 -10 1 -6 6 6 71 -36 95 -62
3 -3 22 -16 42 -30 20 -13 34 -29 31 -35 -4 -5 -3 -7 2 -3 4 4 14 0 22 -10 8
-9 11 -10 7 -3 -5 9 5 6 23 -7 17 -12 36 -22 42 -22 6 0 11 -4 11 -9 0 -4 34
-23 75 -41 41 -18 75 -36 75 -41 0 -5 7 -6 15 -3 10 4 15 0 15 -12 0 -16 2
-17 11 -4 8 11 12 12 15 3 3 -7 21 -15 40 -19 19 -3 37 -10 40 -15 3 -5 9 -7
14 -4 5 3 22 0 37 -8 15 -7 36 -12 46 -10 9 3 17 1 17 -4 0 -4 16 -9 36 -10
20 -1 44 -5 53 -8 82 -34 514 -18 593 21 15 8 35 14 45 14 10 0 31 7 48 16 16
8 37 13 47 11 9 -3 16 0 15 5 -1 6 8 12 20 14 28 5 143 65 143 74 0 4 16 11
35 14 19 4 35 11 35 16 0 6 4 10 10 10 14 0 151 100 181 132 14 15 29 28 32
28 6 0 57 48 57 54 0 1 29 33 65 70 36 37 68 78 71 92 3 13 11 21 17 17 6 -4
8 0 4 10 -3 10 -2 17 3 17 6 0 10 5 10 11 0 6 6 17 13 24 31 36 39 48 56 86
11 25 21 36 24 27 3 -7 5 -2 5 12 0 25 21 90 33 100 10 8 40 93 42 118 0 12 4
22 7 22 3 0 7 10 7 22 1 13 7 32 12 43 6 11 17 79 25 150 16 135 15 296 -3
399 -6 32 -10 61 -9 65 4 31 -4 61 -14 55 -6 -4 -8 -3 -5 3 4 6 0 27 -8 47 -8
19 -14 39 -13 43 1 8 -4 24 -23 71 -5 13 -7 27 -4 32 3 4 -2 11 -11 14 -9 4
-14 9 -11 13 15 14 -128 260 -211 363 -50 62 -219 230 -232 230 -18 0 -11 -17
14 -34 54 -34 171 -161 243 -262 312 -435 360 -988 125 -1459 -144 -291 -363
-512 -647 -653 -169 -84 -301 -121 -511 -143 -264 -28 -596 48 -837 192 -103
62 -141 91 -235 176 -198 181 -340 405 -413 653 -28 94 -59 302 -59 397 -1
534 311 1038 790 1278 179 90 387 144 564 146 51 0 99 5 107 10 20 12 -94 10
-221 -6z m-720 -304 c-49 -32 -240 -232 -240 -250 0 -19 -18 -21 -31 -4 -12
15 -12 16 3 10 12 -4 15 -2 11 9 -3 8 4 25 16 38 12 12 18 26 14 30 -5 4 -3 6
3 4 9 -3 48 29 88 72 54 58 78 80 86 80 6 0 10 5 10 11 0 21 33 39 49 26 11
-9 9 -14 -9 -26z"/>
<path d="M2426 4152 c-2 -4 11 -6 30 -4 19 2 34 6 34 8 0 8 -59 4 -64 -4z"/>
<path d="M2963 4153 c9 -2 23 -2 30 0 6 3 -1 5 -18 5 -16 0 -22 -2 -12 -5z"/>
<path d="M2385 4142 c-12 -9 -18 -32 -7 -32 4 0 13 9 20 20 12 20 6 26 -13 12z"/>
<path d="M3071 4146 c2 -2 28 -7 56 -11 29 -3 66 -10 83 -15 16 -5 30 -5 30
-1 0 4 -29 13 -64 19 -63 12 -113 16 -105 8z"/>
<path d="M2320 4108 c0 -11 12 -10 30 2 12 7 10 9 -8 7 -12 0 -22 -5 -22 -9z"/>
<path d="M2288 4103 c-21 -5 -23 -19 -6 -29 7 -5 8 -3 3 6 -6 10 -4 12 8 7 11
-4 17 -1 17 8 0 8 -1 14 -2 14 -2 -1 -11 -3 -20 -6z"/>
<path d="M3310 4090 c0 -5 9 -10 20 -10 11 0 28 -4 38 -10 9 -5 37 -18 62 -28
25 -11 67 -29 94 -41 35 -15 45 -17 36 -6 -7 8 -17 15 -22 15 -5 0 -33 11 -61
24 -61 28 -153 66 -161 66 -3 0 -6 -4 -6 -10z"/>
<path d="M2220 4071 c0 -5 -11 -12 -25 -15 -30 -8 -66 -36 -59 -47 2 -5 21 3
41 17 28 19 38 22 45 12 6 -10 8 -10 8 1 0 8 8 20 18 27 16 12 15 13 -5 14
-13 0 -23 -4 -23 -9z"/>
<path d="M2080 3994 l-25 -14 31 0 c21 0 31 5 31 15 0 18 -4 18 -37 -1z"/>
<path d="M3597 3963 c12 -10 41 -30 65 -46 24 -15 53 -35 66 -43 12 -9 22 -13
22 -8 0 11 -126 98 -155 107 -18 6 -18 5 2 -10z"/>
<path d="M2036 3955 c-11 -8 -16 -18 -12 -22 3 -4 16 3 29 15 24 25 12 29 -17
7z"/>
<path d="M2800 3859 l-25 -21 26 15 c14 9 44 17 65 20 l39 4 -40 1 c-28 1 -48
-5 -65 -19z"/>
<path d="M2410 3769 c0 -5 5 -7 10 -4 6 3 10 8 10 11 0 2 -4 4 -10 4 -5 0 -10
-5 -10 -11z"/>
<path d="M2385 3760 c-3 -5 -1 -10 4 -10 6 0 11 5 11 10 0 6 -2 10 -4 10 -3 0
-8 -4 -11 -10z"/>
<path d="M2340 3739 c0 -5 5 -7 10 -4 6 3 10 8 10 11 0 2 -4 4 -10 4 -5 0 -10
-5 -10 -11z"/>
<path d="M2305 3720 c-3 -5 1 -10 9 -10 9 0 16 5 16 10 0 6 -4 10 -9 10 -6 0
-13 -4 -16 -10z"/>
<path d="M2234 3674 c-18 -14 -18 -15 4 -4 12 6 22 13 22 15 0 8 -5 6 -26 -11z"/>
<path d="M2106 3573 c-6 -14 -5 -15 5 -6 7 7 10 15 7 18 -3 3 -9 -2 -12 -12z"/>
<path d="M2010 3475 c-7 -9 -8 -15 -2 -15 5 0 12 7 16 15 3 8 4 15 2 15 -2 0
-9 -7 -16 -15z"/>
<path d="M1990 3440 c0 -5 5 -10 10 -10 6 0 10 5 10 10 0 6 -4 10 -10 10 -5 0
-10 -4 -10 -10z"/>
<path d="M1966 3413 c-6 -14 -5 -15 5 -6 7 7 10 15 7 18 -3 3 -9 -2 -12 -12z"/>
<path d="M1910 3350 c0 -5 10 -10 23 -10 18 0 19 2 7 10 -19 13 -30 13 -30 0z"/>
<path d="M1514 3325 c-3 -14 -10 -25 -15 -25 -5 0 -9 -11 -9 -25 0 -14 -4 -25
-10 -25 -16 0 -12 -17 5 -24 10 -3 15 -1 14 7 -1 6 7 34 19 60 25 56 25 57 12
57 -5 0 -12 -11 -16 -25z"/>
<path d="M1880 3290 c0 -5 5 -10 10 -10 6 0 10 5 10 10 0 6 -4 10 -10 10 -5 0
-10 -4 -10 -10z"/>
<path d="M1454 3185 c-7 -19 -14 -41 -14 -50 0 -9 -6 -30 -13 -48 -8 -18 -11
-41 -7 -52 7 -19 7 -19 19 3 7 14 8 22 1 22 -5 0 -10 5 -10 11 0 6 6 9 14 6
11 -4 15 3 15 26 0 56 5 75 17 70 7 -3 10 5 7 21 -7 34 -11 33 -29 -9z"/>
<path d="M1835 3190 c-3 -6 1 -7 9 -4 18 7 21 14 7 14 -6 0 -13 -4 -16 -10z"/>
<path d="M1771 3004 c0 -11 3 -14 6 -6 3 7 2 16 -1 19 -3 4 -6 -2 -5 -13z"/>
<path d="M1406 2984 c-8 -29 -3 -39 12 -30 6 3 8 16 4 28 -4 16 -2 19 8 13 9
-5 11 -4 6 3 -12 19 -23 14 -30 -14z"/>
<path d="M1396 2900 c-12 -72 -10 -200 3 -200 4 0 6 23 5 52 -1 28 1 63 5 77
4 14 4 46 1 71 l-6 45 -8 -45z"/>
<path d="M1740 2870 c0 -5 5 -10 10 -10 6 0 10 5 10 10 0 6 -4 10 -10 10 -5 0
-10 -4 -10 -10z"/>
<path d="M1387 2650 c3 -11 7 -20 9 -20 2 0 4 9 4 20 0 11 -4 20 -9 20 -5 0
-7 -9 -4 -20z"/>
<path d="M1397 2570 c3 -11 7 -20 9 -20 2 0 4 9 4 20 0 11 -4 20 -9 20 -5 0
-7 -9 -4 -20z"/>
<path d="M1397 2520 c3 -11 7 -20 9 -20 2 0 4 9 4 20 0 11 -4 20 -9 20 -5 0
-7 -9 -4 -20z"/>
<path d="M1415 2471 c-3 -5 -1 -12 5 -16 5 -3 10 1 10 9 0 18 -6 21 -15 7z"/>
<path d="M1421 2424 c0 -11 3 -14 6 -6 3 7 2 16 -1 19 -3 4 -6 -2 -5 -13z"/>
<path d="M3881 2414 c0 -11 3 -14 6 -6 3 7 2 16 -1 19 -3 4 -6 -2 -5 -13z"/>
<path d="M1432 2360 c0 -14 2 -19 5 -12 2 6 2 18 0 25 -3 6 -5 1 -5 -13z"/>
<path d="M1595 3739 c-4 -6 -5 -12 -2 -15 2 -3 7 2 10 11 7 17 1 20 -8 4z"/>
<path d="M5315 822 c-5 -4 -17 -20 -26 -37 -9 -16 -39 -47 -65 -67 -27 -21
-50 -41 -52 -46 -1 -4 14 -16 34 -27 49 -26 74 -49 74 -69 0 -9 5 -16 10 -16
6 0 10 -6 10 -14 0 -39 60 -11 66 31 2 9 10 20 18 25 8 5 22 15 30 24 8 8 18
15 21 14 11 -1 45 25 45 35 0 11 -37 38 -57 41 -21 4 -45 33 -37 45 4 8 3 9
-4 5 -7 -4 -12 -4 -12 1 0 17 -45 63 -55 55z m25 -31 c0 -27 48 -81 87 -97 37
-16 44 -34 12 -34 -28 0 -99 -71 -99 -99 0 -12 -6 -21 -15 -21 -9 0 -15 9 -15
21 0 27 -71 99 -98 99 -35 0 -34 18 2 30 40 13 96 72 96 100 0 11 7 20 15 20
8 0 15 -9 15 -19z"/>
</g>
</svg>
